Coordinates
version=1
nRows=4
nColumns=63
inDegrees=yes

Units are S.I. units (second, meters, Newtons, ...)
If the header above contains a line with 'inDegrees', this indicates whether rotational values are in degrees (yes) or radians (no).

endheader
time	pelvis_tilt	pelvis_list	pelvis_rotation	pelvis_tx	pelvis_ty	pelvis_tz	hip_flexion_r	hip_adduction_r	hip_rotation_r	knee_angle_r	knee_angle_r_beta	ankle_angle_r	subtalar_angle_r	mtp_angle_r	hip_flexion_l	hip_adduction_l	hip_rotation_l	knee_angle_l	knee_angle_l_beta	ankle_angle_l	subtalar_angle_l	mtp_angle_l	L5_S1_Flex_Ext	L5_S1_Lat_Bending	L5_S1_axial_rotation	L4_L5_Flex_Ext	L4_L5_Lat_Bending	L4_L5_axial_rotation	L3_L4_Flex_Ext	L3_L4_Lat_Bending	L3_L4_axial_rotation	L2_L3_Flex_Ext	L2_L3_Lat_Bending	L2_L3_axial_rotation	L1_L2_Flex_Ext	L1_L2_Lat_Bending	L1_L2_axial_rotation	L1_T12_Flex_Ext	L1_T12_Lat_Bending	L1_T12_axial_rotation	Abs_r3	Abs_r2	Abs_r1	Abs_t1	Abs_t2	neck_flexion	neck_bending	neck_rotation	arm_flex_r	arm_add_r	arm_rot_r	elbow_flex_r	pro_sup_r	wrist_flex_r	wrist_dev_r	arm_flex_l	arm_add_l	arm_rot_l	elbow_flex_l	pro_sup_l	wrist_flex_l	wrist_dev_l
      0.00000000	     -0.73791443	     -3.42058684	     87.24228951	      0.18031824	      0.95996403	      0.51049858	      8.32543681	     -1.28551572	    -16.54926458	     10.94394396	      0.19100786	     27.39141965	     11.12533560	      0.00000000	      7.61452470	     -0.49826472	      3.30370870	      5.75419237	      0.10042960	     26.13655504	     -3.49139892	      0.00000000	      0.11664022	     -0.09396280	      0.76273394	      0.21661255	     -0.12497052	      0.81040481	      0.19162822	     -0.22846115	      0.81040481	      0.13330811	     -0.22846115	      0.66739220	      0.10831211	     -0.19160894	      0.61972133	      0.06664822	     -0.14554838	      0.57205046	      0.83314943	     -1.06292598	      4.24209737	      0.00000000	      0.00000000	     24.09772446	      7.19668814	     -2.01381071	      7.62569808	    -10.73003208	     39.83497568	     56.53628255	     60.52068098	      3.51578007	     10.55612554	     13.90933951	    -11.05581798	     51.03958695	     55.34298764	     83.26978467	     -0.31765661	      2.59353148
      0.01694915	     -0.69775714	     -3.36143803	     87.71597240	      0.17917775	      0.95958047	      0.51071243	      8.16489091	     -1.36938001	    -16.70605739	     11.05807753	      0.19299986	     27.83426712	      9.73936093	      0.00000000	      7.56506998	     -0.43648300	      4.70039901	      6.14135079	      0.10718679	     25.29910073	     -3.69760613	      0.00000000	      0.11137519	     -0.08459695	      0.63871338	      0.20683486	     -0.11251395	      0.67863297	      0.18297829	     -0.20568903	      0.67863297	      0.12729070	     -0.20568903	      0.55887421	      0.10342300	     -0.17251010	      0.51895462	      0.06363978	     -0.13104068	      0.47903504	      0.79554182	     -0.95697764	      3.55233223	      0.00000000	      0.00000000	     24.06010733	      7.51864359	     -1.29018531	      7.83368987	    -11.13545592	     43.09206059	     56.12374626	     54.71469471	     -0.96179732	      6.90489931	     13.65750853	    -11.02053023	     53.47759590	     55.23378513	     70.56992783	     -4.23698548	      1.71533916
      0.03389831	     -0.75704033	     -3.43890322	     87.88961566	      0.17869314	      0.95915185	      0.51096666	      8.21012951	     -1.41939948	    -16.02667501	     11.04452377	      0.19276330	     28.08888035	      8.19778458	      0.00000000	      7.64506401	     -0.31802765	      6.00900614	      6.23296503	      0.10878576	     25.00274747	     -4.05552350	      0.00000000	      0.12316305	     -0.08713365	      0.65462033	      0.22872610	     -0.11588775	      0.69553410	      0.20234457	     -0.21185675	      0.69553410	      0.14076305	     -0.21185675	      0.57279279	      0.11436921	     -0.17768294	      0.53187902	      0.07037537	     -0.13497002	      0.49096525	      0.87974134	     -0.98567326	      3.64080190	      0.00000000	      0.00000000	     24.21355431	      7.40347134	     -1.32051671	      7.54918018	    -11.39635326	     44.51607984	     56.05142870	     50.03068809	     -3.08763431	      4.76723373	     14.39434670	    -11.23231092	     57.88848072	     55.31580804	     59.45301615	     -8.31649680	     -0.92324370
      0.05084746	     -0.82127176	     -3.48547244	     87.86574859	      0.17846556	      0.95891779	      0.51095740	      8.23839385	     -1.50443455	    -15.91187883	     10.98912911	      0.19179648	     28.54802437	      8.15583087	      0.00000000	      7.69377151	     -0.23585098	      6.54674922	      6.18060419	      0.10787189	     25.43541426	     -3.79885498	      0.00000000	      0.12969337	     -0.08645350	      0.65058485	      0.24085355	     -0.11498315	      0.69124640	      0.21307323	     -0.21020303	      0.69124640	      0.14822655	     -0.21020303	      0.56926174	      0.12043326	     -0.17629597	      0.52860019	      0.07410679	     -0.13391647	      0.48793864	      0.92638675	     -0.97797926	      3.61835776	      0.00000000	      0.00000000	     24.43047128	      7.28890052	     -1.23707838	      7.25089560	    -11.34795110	     44.65238319	     55.79925412	     49.99286399	     -3.27637087	      4.59991217	     14.24104583	    -11.11318229	     58.25358890	     55.25263586	     59.24636850	     -8.39269748	     -0.82518002
